<svg width="14" height="15" viewBox="0 0 14 15" fill="none" xmlns="http://www.w3.org/2000/svg">
<g clip-path="url(#clip0)">
<path d="M13.158 7.452C13.1579 7.53154 13.1263 7.60779 13.07 7.664L6.467 14.268C6.41013 14.321 6.33491 14.3498 6.25719 14.3485C6.17947 14.3471 6.10532 14.3156 6.05035 14.2606C5.99539 14.2057 5.9639 14.1315 5.96253 14.0538C5.96116 13.9761 5.99001 13.9009 6.043 13.844L12.431 7.452L6.042 1.067C5.98901 1.01013 5.96016 0.934912 5.96153 0.857191C5.9629 0.779471 5.99439 0.705317 6.04935 0.650352C6.10432 0.595386 6.17847 0.563902 6.25619 0.562531C6.33391 0.561159 6.40913 0.590009 6.466 0.643001L13.066 7.243C13.123 7.29782 13.1561 7.37293 13.158 7.452V7.452Z" fill="#05257A" stroke="#05257A"/>
<path d="M7.75 7.452C7.74993 7.53154 7.71828 7.60779 7.662 7.664L1.066 14.268C1.00913 14.321 0.933911 14.3498 0.856191 14.3485C0.778471 14.3471 0.704316 14.3156 0.649351 14.2606C0.594386 14.2057 0.562901 14.1315 0.56153 14.0538C0.560159 13.9761 0.589008 13.9009 0.642 13.844L7.03 7.452L0.642 1.067C0.613634 1.03962 0.59094 1.00692 0.575211 0.970769C0.559483 0.934618 0.55103 0.895722 0.550333 0.856303C0.549637 0.816885 0.556711 0.777715 0.571152 0.741031C0.585594 0.704346 0.607119 0.670865 0.6345 0.6425C0.661881 0.614134 0.69458 0.59144 0.730732 0.575712C0.766883 0.559984 0.805778 0.55153 0.845197 0.550834C0.884615 0.550137 0.923785 0.557211 0.960469 0.571652C0.997154 0.586094 1.03063 0.60762 1.059 0.635L1.066 0.642L7.666 7.242C7.72033 7.29836 7.75047 7.37372 7.75 7.452V7.452Z" fill="#05257A" stroke="#05257A"/>
</g>
<defs>
<clipPath id="clip0">
<rect width="13.703" height="14.899" fill="white"/>
</clipPath>
</defs>
</svg>
