<svg xmlns="http://www.w3.org/2000/svg" width="35.621" height="35.621" viewBox="0 0 35.621 35.621"><defs><style>.a{fill:#4267b2;}.b{fill:#fff;}</style></defs><g transform="translate(0 0)"><path class="a" d="M33.655,0H1.964A1.966,1.966,0,0,0,0,1.966v31.69a1.966,1.966,0,0,0,1.966,1.965H33.655a1.966,1.966,0,0,0,1.966-1.965h0V1.965A1.966,1.966,0,0,0,33.655,0Zm0,0" transform="translate(0 0)"/><path class="b" d="M217.192,107.566V93.79h4.644l.7-5.392h-5.34V84.964c0-1.558.432-2.619,2.666-2.619h2.83v-4.81a38.051,38.051,0,0,0-4.148-.212c-4.1,0-6.914,2.5-6.914,7.106V88.4H207V93.79h4.627v13.775Zm0,0" transform="translate(-192.599 -71.945)"/></g></svg>