<svg xmlns="http://www.w3.org/2000/svg" width="35.447" height="35.447" viewBox="0 0 35.447 35.447">
    <path id="Path_64" data-name="Path 64" d="M63.006,306.059A17.526,17.526,0,0,1,36.4,301.552l1.151-5.3,5.1-.947a9.412,9.412,0,0,0,8.952,6.626,9.212,9.212,0,0,0,5.483-1.786l4.9.748Z" transform="translate(-33.88 -274.856)" fill="#59c36a" />
    <path id="Path_65" data-name="Path 65" d="M267.4,371.119l-1.018-5.172-4.9-.748A9.212,9.212,0,0,1,256,366.986v8.377a17.7,17.7,0,0,0,11.4-4.244Z" transform="translate(-238.277 -339.916)" fill="#00a66c" />
    <path id="Path_66" data-name="Path 66" d="M8.377,135.372a9.679,9.679,0,0,0,.395,2.721L2.52,144.345a17.233,17.233,0,0,1,0-17.945l5.017.864,1.234,5.388a9.678,9.678,0,0,0-.4,2.721Z" transform="translate(0 -117.649)" fill="#ffda2d" />
    <path id="Path_67" data-name="Path 67" d="M259.762,200.154a17.7,17.7,0,0,1-6.321,13.479l-5.919-5.919a9.19,9.19,0,0,0,2.887-3.406h-8.37A1.028,1.028,0,0,1,241,203.269v-6.231A1.028,1.028,0,0,1,242.039,196h16.394a1.026,1.026,0,0,1,1.018.851,17.608,17.608,0,0,1,.311,3.3Z" transform="translate(-224.315 -182.431)" fill="#4086f4" />
    <path id="Path_68" data-name="Path 68" d="M264.37,204.308a9.191,9.191,0,0,1-2.887,3.406l5.919,5.919a17.554,17.554,0,0,0,6.009-16.782,1.026,1.026,0,0,0-1.018-.851H256v8.308Z" transform="translate(-238.277 -182.431)" fill="#4175df" />
    <path id="Path_69" data-name="Path 69" d="M63.3,4.95a1.048,1.048,0,0,1-.291.768l-4.445,4.424a1.017,1.017,0,0,1-1.35.1A9.29,9.29,0,0,0,51.6,8.377,9.412,9.412,0,0,0,42.652,15L36.4,8.751A17.516,17.516,0,0,1,62.923,4.182a1.092,1.092,0,0,1,.374.768Z" transform="translate(-33.88)" fill="#ff641a" />
    <path id="Path_70" data-name="Path 70" d="M261.608,10.246a1.017,1.017,0,0,0,1.35-.1L267.4,5.718a1.047,1.047,0,0,0,.291-.768,1.092,1.092,0,0,0-.374-.768A17.67,17.67,0,0,0,256,0V8.377a9.29,9.29,0,0,1,5.608,1.869Z" transform="translate(-238.277)" fill="#f03800" />
</svg>
