<svg xmlns="http://www.w3.org/2000/svg" width="25" height="25" viewBox="0 0 25 25"><defs><style>.a{fill:#e6455b;}.b{fill:#fff;}</style></defs><g transform="translate(-3090 -1352)"><circle class="a" cx="12.5" cy="12.5" r="12.5" transform="translate(3090 1352)"/><g transform="translate(3096 1341.983)"><path class="b" d="M192.852,303.983h1.5a.852.852,0,0,1,.852.852v3.557H192v-3.557A.852.852,0,0,1,192.852,303.983Z" transform="translate(-187.19 -280.752)"/><path class="b" d="M12.709,21.544,7.724,16.559a1.856,1.856,0,0,0-2.622,0L.118,21.544a.4.4,0,1,0,.567.567L1,21.793v5.1a1.154,1.154,0,0,0,1.152,1.152h8.517a1.154,1.154,0,0,0,1.152-1.152v-5.1l.318.318a.4.4,0,0,0,.567-.567Zm-7.5,5.7V24.083a.451.451,0,0,1,.451-.451h1.5a.451.451,0,0,1,.451.451v3.156Zm5.812-.351a.351.351,0,0,1-.351.351H8.417V24.083A1.254,1.254,0,0,0,7.165,22.83h-1.5a1.254,1.254,0,0,0-1.253,1.253v3.156H2.155a.351.351,0,0,1-.351-.351v-5.9l3.865-3.865a1.053,1.053,0,0,1,1.488,0l3.865,3.865Z" transform="translate(0)"/></g></g></svg>