<svg xmlns="http://www.w3.org/2000/svg" xmlns:xlink="http://www.w3.org/1999/xlink" viewBox="0 0 671.48 594.73"><defs><style>.cls-1{fill:url(#linear-gradient);}.cls-2{fill:url(#linear-gradient-2);}.cls-3{fill:url(#linear-gradient-3);}.cls-4{fill:url(#linear-gradient-4);}.cls-5{fill:url(#linear-gradient-5);}.cls-6{fill:url(#linear-gradient-6);}.cls-7{fill:url(#linear-gradient-7);}.cls-8{fill:url(#linear-gradient-8);}.cls-9{fill:url(#linear-gradient-9);}.cls-10{fill:url(#linear-gradient-10);}.cls-11{fill:url(#linear-gradient-11);}.cls-12{fill:url(#linear-gradient-12);}.cls-13{fill:url(#linear-gradient-13);}.cls-14{fill:url(#linear-gradient-14);}.cls-15{fill:url(#linear-gradient-15);}.cls-16{fill:url(#linear-gradient-16);}.cls-17{fill:url(#linear-gradient-17);}.cls-18{fill:url(#linear-gradient-18);}.cls-19{fill:url(#linear-gradient-19);}.cls-20{font-size:88.81px;fill:#2e3389;font-family:Apice-Regular, Apice;letter-spacing:0.21em;}.cls-21{letter-spacing:0.24em;}.cls-22{letter-spacing:0.19em;}.cls-23,.cls-24,.cls-25,.cls-26{fill:#de3444;}.cls-23{letter-spacing:0.15em;}.cls-24{letter-spacing:0.21em;}.cls-25{letter-spacing:0.23em;}.cls-26{letter-spacing:0.25em;}</style><linearGradient id="linear-gradient" x1="411.72" y1="355.48" x2="411.72" y2="40.74" gradientUnits="userSpaceOnUse"><stop offset="0" stop-color="#22144d"/><stop offset="1" stop-color="#bf3f32"/></linearGradient><linearGradient id="linear-gradient-2" x1="122.9" y1="355.48" x2="122.9" y2="40.74" xlink:href="#linear-gradient"/><linearGradient id="linear-gradient-3" x1="494.51" y1="355.48" x2="494.51" y2="40.74" xlink:href="#linear-gradient"/><linearGradient id="linear-gradient-4" x1="286.62" y1="355.48" x2="286.62" y2="40.74" xlink:href="#linear-gradient"/><linearGradient id="linear-gradient-5" x1="413.66" y1="355.48" x2="413.66" y2="40.72" xlink:href="#linear-gradient"/><linearGradient id="linear-gradient-6" x1="253.62" y1="355.48" x2="253.62" y2="40.72" xlink:href="#linear-gradient"/><linearGradient id="linear-gradient-7" x1="516.81" y1="355.48" x2="516.81" y2="40.74" xlink:href="#linear-gradient"/><linearGradient id="linear-gradient-8" x1="306.59" y1="355.48" x2="306.59" y2="40.74" xlink:href="#linear-gradient"/><linearGradient id="linear-gradient-9" x1="201.44" y1="355.48" x2="201.44" y2="40.74" xlink:href="#linear-gradient"/><linearGradient id="linear-gradient-10" x1="359.2" y1="355.48" x2="359.2" y2="40.74" xlink:href="#linear-gradient"/><linearGradient id="linear-gradient-11" x1="234.14" y1="342.32" x2="234.14" y2="27.58" xlink:href="#linear-gradient"/><linearGradient id="linear-gradient-12" x1="194.15" y1="355.48" x2="194.15" y2="40.74" xlink:href="#linear-gradient"/><linearGradient id="linear-gradient-13" x1="148.95" y1="355.48" x2="148.95" y2="40.74" xlink:href="#linear-gradient"/><linearGradient id="linear-gradient-14" x1="114.31" y1="355.48" x2="114.31" y2="40.74" xlink:href="#linear-gradient"/><linearGradient id="linear-gradient-15" x1="163.49" y1="355.48" x2="163.49" y2="40.74" xlink:href="#linear-gradient"/><linearGradient id="linear-gradient-16" x1="255.24" y1="370.11" x2="255.24" y2="55.37" xlink:href="#linear-gradient"/><linearGradient id="linear-gradient-17" x1="318.01" y1="369.61" x2="318.01" y2="54.87" xlink:href="#linear-gradient"/><linearGradient id="linear-gradient-18" x1="374.67" y1="359.24" x2="374.67" y2="44.5" xlink:href="#linear-gradient"/><linearGradient id="linear-gradient-19" x1="344.67" y1="358.74" x2="344.67" y2="44" xlink:href="#linear-gradient"/></defs><title>Logo_simple</title><g id="Layer_2" data-name="Layer 2"><g id="Layer_1-2" data-name="Layer 1"><path class="cls-1" d="M490.29,78.45c0,4,.19,7.91,0,11.85-.49,8.44-5.36,13.49-13.77,13.91-7,.35-14,0-21,.2-11.8.39-17.19,5.73-17.65,17.45-.23,6.07.05,12.17-.11,18.24-.33,11.68-5.27,16.65-16.7,16.85-6.39.1-12.78.14-19.16,0-10.52-.25-15.64-5.25-15.95-15.64-.2-6.69.16-13.39-.13-20.07-.46-10.57-5.93-16.18-16.54-16.76-7-.38-14,.07-21-.18-9.89-.34-14.86-5.48-15.09-15.49-.16-7.29-.25-14.6.07-21.88.37-8.41,5.4-13.47,13.79-13.93,6.37-.34,12.77-.09,19.15-.16,14-.15,19.45-5.49,19.65-19.23.1-6.08-.13-12.17.1-18.25C386.33,6,391.37.7,400.66.23c7-.35,14-.25,21,0,10.54.31,15.61,5.26,16,15.69.28,6.67-.13,13.38.19,20.06C438.39,47,444,52.39,455.19,52.79c5.47.19,10.95,0,16.42.06,14.25.09,18.62,4.37,18.72,18.3,0,2.43,0,4.86,0,7.3Z" transform="translate(0 0)"/><path class="cls-2" d="M178.57,253.75c0,12.58.21,25.17-.06,37.75-.25,11.65-5.83,17-17.37,17.26q-10.17.21-20.33,0c-11.73-.25-17.14-5.59-17.39-17.17-.16-7.09.17-14.2-.12-21.29-.44-10.57-6.36-16.69-17-17.28-7.72-.43-15.49.07-23.22-.25-9.94-.4-15.38-5.85-15.74-15.8-.28-7.74-.31-15.5,0-23.23.43-9.85,6-15.39,16.06-15.47q39.19-.3,78.41,0c11.12.07,16.31,5.32,16.58,16.79.31,12.9.07,25.81.07,38.72Z" transform="translate(0 0)"/><path class="cls-3" d="M494.28,171.46c-12.18,0-24.36-.16-36.53,0-10.22.18-15.42,4.92-15.53,15q-.42,37,.06,74c.14,9.88,5.66,14.78,15.66,15.11,6.69.22,13.4.23,20.09,0,10.81-.34,15.8-5.62,16-16.69.12-6.39-.16-12.79.09-19.18.41-10.47,6.07-16.21,16.61-16.71,7-.33,14,.07,21-.17,9.38-.32,14.67-5.43,15-14.72.3-7.3.3-14.62,0-21.92-.37-9.33-5.58-14.52-15-14.72C519.25,171.26,506.77,171.46,494.28,171.46Z" transform="translate(0 0)"/><path class="cls-4" d="M286.4,157c-12.18,0-24.36.16-36.54-.06-10.21-.18-15.41-4.92-15.52-15q-.42-37,.06-74c.13-9.88,5.66-14.79,15.65-15.11,6.69-.22,13.4-.23,20.09,0,10.82.34,15.81,5.61,16,16.68.11,6.4-.16,12.8.09,19.18.4,10.47,6.07,16.22,16.6,16.71,7,.33,14-.06,21,.17,9.37.32,14.66,5.44,15,14.73.3,7.29.3,14.62,0,21.91-.36,9.34-5.58,14.52-15,14.72C311.37,157.17,298.88,157,286.4,157Z" transform="translate(0 0)"/><path class="cls-5" d="M387.75,313.88c0-11.87-.15-23.74,0-35.61.17-10.35,4.61-15.36,14.67-16a173.62,173.62,0,0,1,22.81.05c9.25.62,14.06,5.38,14.17,14.58.3,25,.19,49.92.08,74.88,0,8.7-5,13.78-13.35,14.51a151,151,0,0,1-24.62.09c-9-.68-13.56-5.89-13.74-15.05C387.57,338.85,387.75,326.37,387.75,313.88Z" transform="translate(0 0)"/><path class="cls-6" d="M227.71,366.62c0-11.87-.15-23.75,0-35.62.16-10.35,4.61-15.35,14.66-16a175.37,175.37,0,0,1,22.81.05c9.25.62,14.07,5.38,14.18,14.58.3,25,.18,49.92.08,74.89,0,8.7-5,13.77-13.36,14.5a151,151,0,0,1-24.62.1c-9-.69-13.56-5.9-13.73-15.06C227.54,391.58,227.72,379.1,227.71,366.62Z" transform="translate(0 0)"/><path class="cls-7" d="M543.14,131.43c0,3.34.12,6.69,0,10-.43,9.67-5.74,15.12-15.38,15.46-7,.24-14,.19-20.94,0-9.72-.25-15.41-5.36-16-14.93a182.92,182.92,0,0,1,0-21.84c.54-9.34,5.49-14.26,15-15,6-.48,12.14-.28,18.2-.18,14.41.23,19.09,5,19.16,19.18C543.15,126.58,543.14,129,543.14,131.43Z" transform="translate(0 0)"/><path class="cls-8" d="M305.84,471.25c-3.34,0-6.69.13-10,0-9.13-.44-14.84-5.6-15.36-14.65a185.84,185.84,0,0,1,0-22.76c.53-8.31,5.19-13.68,13.75-14.19a188,188,0,0,1,24.55-.06c8.79.62,13.54,5.95,14.06,14.92.35,6.06.17,12.15.1,18.22-.15,13.37-5.39,18.48-18.91,18.56C311.31,471.27,308.57,471.26,305.84,471.25Z" transform="translate(0 0)"/><path class="cls-9" d="M227.36,27c0,3.34.12,6.68,0,10-.41,9-4.81,14.34-13.74,15A148.83,148.83,0,0,1,189.06,52c-8.23-.72-13.27-5.63-13.43-14.36-.14-7.58-.31-15.17.05-22.74.44-9.27,5.65-14.28,15-14.71,6.06-.28,12.13-.11,18.2-.06,13.79.13,18.33,4.74,18.47,18.69C227.4,21.57,227.38,24.3,227.36,27Z" transform="translate(0 0)"/><path class="cls-10" d="M358.84,367.19c24.87-.08,26.69,1.74,26.65,26.92a75.42,75.42,0,0,1-.64,12.68c-1.24,7.06-5.61,11.43-13,11.67-8.48.27-17,.34-25.47,0-7.8-.34-12.41-5.19-13-12.68a175.9,175.9,0,0,1,0-25.46c.55-8,5.5-12.56,13.64-13C350.94,367,354.9,367.19,358.84,367.19Z" transform="translate(0 0)"/><path class="cls-11" d="M233.77,182.7c24.87-.08,26.7,1.74,26.65,26.92a73.21,73.21,0,0,1-.64,12.67c-1.24,7.07-5.61,11.44-13,11.68-8.49.27-17,.34-25.48,0-7.8-.34-12.41-5.19-13-12.68a175.9,175.9,0,0,1,0-25.46c.55-8,5.5-12.56,13.64-13C225.87,182.5,229.83,182.7,233.77,182.7Z" transform="translate(0 0)"/><path class="cls-12" d="M194,366.28c-23.83,0-26-2.17-26-25.83,0-3.33-.13-6.68.09-10,.69-10.56,5.61-15.4,16-15.64,7.28-.17,14.57-.24,21.84.05,8.84.36,13.92,5.51,14.29,14.35.27,6.36.11,12.74.08,19.11-.08,13.22-4.72,17.81-18.13,18C199.44,366.31,196.7,366.28,194,366.28Z" transform="translate(0 0)"/><path class="cls-13" d="M123,78.41c0-3.63-.14-7.28,0-10.91.42-9,5.25-14.17,14-14.53,7.87-.32,15.76-.23,23.64,0,8.68.22,13.47,5.12,14,13.58a211.67,211.67,0,0,1,.06,23.63c-.49,9.15-5.34,13.73-14.41,14.11-6.65.27-13.33.16-20,.08-12.67-.16-17.22-4.86-17.35-17.75,0-2.73,0-5.46,0-8.19Z" transform="translate(0 0)"/><path class="cls-14" d="M114.81,124.74c11.87,0,23.74-.15,35.61,0,10.36.16,15.36,4.61,16,14.67a173.62,173.62,0,0,1,0,22.81c-.63,9.25-5.39,14.06-14.59,14.17-25,.3-49.92.18-74.88.08-8.7,0-13.78-5-14.51-13.36a150.91,150.91,0,0,1-.09-24.61c.69-9,5.89-13.57,15.06-13.74C89.84,124.56,102.33,124.74,114.81,124.74Z" transform="translate(0 0)"/><path class="cls-15" d="M164,124.74c11.88,0,23.75-.15,35.62,0,10.35.16,15.35,4.61,16,14.67a175.37,175.37,0,0,1,0,22.81c-.62,9.25-5.38,14.06-14.58,14.17-25,.3-49.92.18-74.88.08-8.71,0-13.78-5-14.51-13.36a150.91,150.91,0,0,1-.09-24.61c.68-9,5.89-13.57,15.05-13.74C139,124.56,151.5,124.74,164,124.74Z" transform="translate(0 0)"/><path class="cls-16" d="M255.73,249.87c11.87,0,23.75-.15,35.62,0,10.35.17,15.35,4.61,16,14.67a175.37,175.37,0,0,1-.05,22.81c-.63,9.25-5.39,14.06-14.58,14.17-25,.3-49.93.19-74.89.08-8.7,0-13.77-5-14.51-13.35a152.17,152.17,0,0,1-.09-24.62c.69-9,5.9-13.56,15.06-13.74C230.77,249.69,243.25,249.87,255.73,249.87Z" transform="translate(0 0)"/><path class="cls-17" d="M318.5,249.87c11.87,0,23.75-.15,35.62,0,10.35.17,15.35,4.61,16,14.67a175.37,175.37,0,0,1-.05,22.81c-.63,9.25-5.38,14.06-14.58,14.17-25,.3-49.93.19-74.89.08-8.7,0-13.77-5-14.5-13.35a151,151,0,0,1-.1-24.62c.69-9,5.9-13.56,15.06-13.74C293.54,249.69,306,249.87,318.5,249.87Z" transform="translate(0 0)"/><path class="cls-18" d="M375.17,182.5c11.87,0,23.75-.15,35.61,0,10.36.17,15.36,4.61,16,14.67a173.62,173.62,0,0,1,0,22.81c-.63,9.25-5.39,14.06-14.59,14.17-24.95.3-49.92.18-74.88.08-8.7,0-13.77-5-14.51-13.36a150.91,150.91,0,0,1-.09-24.61c.69-9,5.89-13.57,15.06-13.74C350.2,182.32,362.69,182.5,375.17,182.5Z" transform="translate(0 0)"/><path class="cls-19" d="M345.17,182.5c11.87,0,23.75-.15,35.61,0,10.36.17,15.36,4.61,16,14.67a173.62,173.62,0,0,1,0,22.81c-.63,9.25-5.39,14.06-14.59,14.17-24.95.3-49.92.18-74.88.08-8.7,0-13.77-5-14.51-13.36a150.91,150.91,0,0,1-.09-24.61c.69-9,5.89-13.57,15.06-13.74C320.2,182.32,332.69,182.5,345.17,182.5Z" transform="translate(0 0)"/><text class="cls-20" transform="translate(0 570.89)">K<tspan class="cls-21" x="85.08" y="0">EE</tspan><tspan class="cls-22" x="253.47" y="0">P</tspan><tspan class="cls-23" x="334.47" y="0">S</tspan><tspan class="cls-24" x="412.41" y="0">A</tspan><tspan class="cls-25" x="503.09" y="0">F</tspan><tspan class="cls-26" x="586.39" y="0">E</tspan></text></g></g></svg>