<svg xmlns="http://www.w3.org/2000/svg" width="150.271" height="157.436" viewBox="0 0 150.271 157.436">
  <g id="KeepSafeLogo-v4" transform="translate(-2.2 0.005)">
    <path id="Path_44" data-name="Path 44" d="M377.237,22.05c0,1.124.053,2.223,0,3.33a3.778,3.778,0,0,1-3.87,3.909c-1.967.1-3.935,0-5.9.056-3.316.11-4.831,1.61-4.96,4.9-.065,1.706.014,3.42-.031,5.126-.093,3.283-1.481,4.679-4.693,4.736-1.8.028-3.592.039-5.385,0-2.957-.07-4.4-1.475-4.483-4.4-.056-1.88.045-3.763-.037-5.641-.129-2.971-1.667-4.547-4.648-4.71-1.967-.107-3.935.02-5.9-.051-2.78-.1-4.176-1.54-4.241-4.353-.045-2.049-.07-4.1.02-6.149a3.782,3.782,0,0,1,3.876-3.915c1.79-.1,3.589-.025,5.382-.045,3.935-.042,5.466-1.543,5.522-5.4.028-1.709-.036-3.42.028-5.129.107-2.631,1.523-4.12,4.134-4.252,1.967-.1,3.935-.07,5.9,0,2.962.087,4.387,1.478,4.5,4.41.079,1.875-.036,3.76.053,5.638.152,3.1,1.728,4.612,4.873,4.724,1.537.053,3.077,0,4.615.017,4,.025,5.233,1.228,5.261,5.143V22.05Z" transform="translate(-245.385 -0.003)" fill="#fff"/>
    <path id="Path_45" data-name="Path 45" d="M98.441,213.754c0,3.536.059,7.074-.017,10.609-.07,3.274-1.638,4.778-4.882,4.851q-2.858.059-5.714,0c-3.3-.07-4.817-1.571-4.887-4.825-.045-1.993.048-3.991-.034-5.983-.124-2.971-1.787-4.691-4.778-4.856-2.17-.121-4.353.02-6.526-.07-2.794-.112-4.322-1.644-4.424-4.44-.079-2.175-.087-4.356,0-6.529.121-2.768,1.686-4.325,4.514-4.348q11.014-.084,22.037,0c3.125.02,4.584,1.5,4.66,4.719.087,3.625.02,7.254.02,10.882Z" transform="translate(-54.195 -142.441)" fill="#fff"/>
    <path id="Path_46" data-name="Path 46" d="M456.71,171.4c-3.423,0-6.846-.045-10.266,0-2.872.051-4.334,1.383-4.365,4.216q-.118,10.4.017,20.8c.039,2.777,1.591,4.154,4.4,4.247,1.88.062,3.766.065,5.646,0,3.038-.1,4.44-1.579,4.5-4.691.034-1.8-.045-3.6.025-5.39.115-2.943,1.706-4.556,4.668-4.7,1.967-.093,3.935.02,5.9-.048,2.636-.09,4.123-1.526,4.216-4.137.084-2.052.084-4.109,0-6.16a3.9,3.9,0,0,0-4.216-4.137C463.728,171.34,460.22,171.4,456.71,171.4Z" transform="translate(-323.736 -123.21)" fill="#fff"/>
    <path id="Path_47" data-name="Path 47" d="M248.83,81.985c-3.423,0-6.846.045-10.269-.017-2.869-.051-4.331-1.383-4.362-4.216q-.118-10.4.017-20.8c.037-2.777,1.591-4.157,4.4-4.247,1.88-.062,3.766-.065,5.646,0,3.041.1,4.443,1.577,4.5,4.688.031,1.8-.045,3.6.025,5.39.112,2.943,1.706,4.559,4.665,4.7,1.967.093,3.935-.017,5.9.048,2.633.09,4.12,1.529,4.216,4.14.084,2.049.084,4.109,0,6.158a3.893,3.893,0,0,1-4.216,4.137C255.848,82.033,252.338,81.985,248.83,81.985Z" transform="translate(-174.279 -37.862)" fill="#fff"/>
    <path id="Path_48" data-name="Path 48" d="M387.7,276.523c0-3.336-.042-6.672,0-10.008.048-2.909,1.3-4.317,4.123-4.5a48.8,48.8,0,0,1,6.411.014c2.6.174,3.951,1.512,3.982,4.1.084,7.026.053,14.03.022,21.044a3.764,3.764,0,0,1-3.752,4.078,42.445,42.445,0,0,1-6.919.025c-2.529-.191-3.811-1.655-3.862-4.23C387.646,283.54,387.7,280.033,387.7,276.523Z" transform="translate(-284.662 -188.31)" fill="#fff"/>
    <path id="Path_49" data-name="Path 49" d="M227.661,329.258c0-3.336-.042-6.675,0-10.011.045-2.909,1.3-4.314,4.12-4.5a49.288,49.288,0,0,1,6.411.014c2.6.174,3.954,1.512,3.985,4.1.084,7.026.051,14.03.023,21.047a3.762,3.762,0,0,1-3.755,4.075,42.441,42.441,0,0,1-6.919.028c-2.529-.194-3.811-1.658-3.859-4.232C227.614,336.273,227.664,332.766,227.661,329.258Z" transform="translate(-169.605 -226.223)" fill="#fff"/>
    <path id="Path_50" data-name="Path 50" d="M505.29,112.293c0,.939.034,1.88,0,2.81-.121,2.718-1.613,4.249-4.322,4.345-1.967.067-3.935.053-5.885,0-2.732-.07-4.331-1.506-4.5-4.2a51.427,51.427,0,0,1,0-6.138c.152-2.625,1.543-4.008,4.216-4.216,1.686-.135,3.412-.079,5.115-.051,4.05.065,5.365,1.4,5.385,5.39C505.292,110.93,505.29,111.61,505.29,112.293Z" transform="translate(-358.584 -75.357)" fill="#fff"/>
    <path id="Path_51" data-name="Path 51" d="M287.356,433.841c-.939,0-1.88.036-2.81,0-2.566-.124-4.171-1.574-4.317-4.117a52.26,52.26,0,0,1,0-6.4,3.857,3.857,0,0,1,3.864-3.988,52.835,52.835,0,0,1,6.9-.017c2.47.174,3.8,1.672,3.951,4.193.1,1.7.048,3.415.028,5.121-.042,3.758-1.515,5.194-5.315,5.216Z" transform="translate(-207.342 -301.401)" fill="#fff"/>
    <path id="Path_52" data-name="Path 52" d="M190.05,7.612c0,.939.034,1.877,0,2.81-.115,2.529-1.352,4.03-3.862,4.216a41.827,41.827,0,0,1-6.9,0,3.785,3.785,0,0,1-3.774-4.036c-.039-2.13-.087-4.263.014-6.391.124-2.605,1.588-4.013,4.216-4.134,1.7-.079,3.409-.031,5.115-.017,3.876.037,5.152,1.332,5.191,5.253C190.061,6.086,190.055,6.853,190.05,7.612Z" transform="translate(-132.091 -0.025)" fill="#fff"/>
    <path id="Path_53" data-name="Path 53" d="M340.2,367.15c6.99-.022,7.5.489,7.49,7.566a21.188,21.188,0,0,1-.18,3.564,3.6,3.6,0,0,1-3.654,3.28c-2.383.076-4.778.1-7.158,0a3.578,3.578,0,0,1-3.65-3.56,49.422,49.422,0,0,1,0-7.155,3.67,3.67,0,0,1,3.833-3.654C337.983,367.1,339.1,367.15,340.2,367.15Z" transform="translate(-245.294 -263.955)" fill="#fff"/>
    <path id="Path_54" data-name="Path 54" d="M215.126,182.657c6.99-.022,7.5.489,7.49,7.566a20.574,20.574,0,0,1-.18,3.561,3.6,3.6,0,0,1-3.654,3.283c-2.386.076-4.778.1-7.161,0a3.578,3.578,0,0,1-3.654-3.564,49.44,49.44,0,0,1,0-7.155,3.67,3.67,0,0,1,3.833-3.654C212.906,182.6,214.019,182.657,215.126,182.657Z" transform="translate(-155.367 -131.311)" fill="#fff"/>
    <path id="Path_55" data-name="Path 55" d="M175.28,329.169c-6.7,0-7.307-.61-7.307-7.259,0-.936-.037-1.877.025-2.81.194-2.968,1.577-4.328,4.5-4.4,2.046-.048,4.1-.067,6.138.014a3.837,3.837,0,0,1,4.016,4.033c.076,1.787.031,3.58.022,5.371-.022,3.715-1.327,5.005-5.1,5.059C176.809,329.178,176.038,329.169,175.28,329.169Z" transform="translate(-126.697 -226.23)" fill="#fff"/>
    <path id="Path_56" data-name="Path 56" d="M122.955,59.97c0-1.02-.039-2.046,0-3.066.118-2.529,1.475-3.982,3.935-4.084,2.212-.09,4.429-.065,6.644,0a3.686,3.686,0,0,1,3.935,3.817,59.489,59.489,0,0,1,.017,6.641c-.138,2.572-1.5,3.859-4.05,3.966-1.869.076-3.746.045-5.621.022-3.561-.045-4.84-1.366-4.876-4.989v-2.3Z" transform="translate(-94.326 -37.935)" fill="#fff"/>
    <path id="Path_57" data-name="Path 57" d="M83.737,124.687c4.9,0,9.8-.042,14.7,0,4.278.045,6.342,1.3,6.61,4.123a33.265,33.265,0,0,1,0,6.411c-.26,2.6-2.225,3.951-6.023,3.982-10.321.084-20.61.051-30.913.022a7.285,7.285,0,0,1-4.207-.982,3.37,3.37,0,0,1-1.784-2.773,28.929,28.929,0,0,1-.037-6.916c.285-2.529,2.431-3.814,6.217-3.861C73.427,124.636,78.584,124.687,83.737,124.687Z" transform="translate(-50.437 -89.63)" fill="#fff"/>
    <path id="Path_59" data-name="Path 59" d="M226.56,249.816c5.332,0,10.668-.042,16,0,4.649.048,6.895,1.3,7.192,4.123a30.9,30.9,0,0,1-.022,6.411c-.283,2.6-2.421,3.951-6.553,3.982-11.229.084-22.426.053-33.637.022a8.491,8.491,0,0,1-4.574-.981,3.359,3.359,0,0,1-1.943-2.771,26.828,26.828,0,0,1-.04-6.919c.31-2.529,2.65-3.811,6.764-3.862C215.348,249.766,220.953,249.816,226.56,249.816Z" transform="translate(-151.726 -179.593)" fill="#fff"/>
    <path id="Path_62" data-name="Path 62" d="M311.376,182.447c4.29,0,8.584-.042,12.87,0,3.745.048,5.552,1.3,5.787,4.123a37.968,37.968,0,0,1,0,6.411c-.228,2.6-1.948,3.951-5.273,3.982-9.018.084-18.043.051-27.063.022a5.755,5.755,0,0,1-3.682-.983,3.448,3.448,0,0,1-1.563-2.772,33.016,33.016,0,0,1-.032-6.916c.25-2.529,2.128-3.814,5.442-3.862C302.351,182.4,306.865,182.447,311.376,182.447Z" transform="translate(-216.056 -131.157)" fill="#fff"/>
    <path id="Path_63" data-name="Path 63" d="M9.46-8.8l4.8,8.8h-4.07L7.128-5.6,5.775-3.74V0H2.2V-15.4H5.775v5.577L9.834-15.4h4.422Zm24.112-3.025h-7.6v2.332h5.918v3.575H25.971v2.343h7.6V0H22.4V-15.4H33.572Zm20.636,0h-7.6v2.332h5.918v3.575H46.607v2.343h7.6V0H43.032V-15.4H54.208Zm9.46-3.575h5.8a5.839,5.839,0,0,1,2.255.451,5.817,5.817,0,0,1,1.848,1.243,5.9,5.9,0,0,1,1.243,1.848A5.839,5.839,0,0,1,75.262-9.6a5.839,5.839,0,0,1-.451,2.255A5.817,5.817,0,0,1,73.568-5.5,5.817,5.817,0,0,1,71.72-4.257a5.839,5.839,0,0,1-2.255.451H67.243V0H63.668Zm3.575,3.575v4.444h2.222a2.142,2.142,0,0,0,1.573-.649A2.142,2.142,0,0,0,71.687-9.6a2.148,2.148,0,0,0-.649-1.567,2.133,2.133,0,0,0-1.573-.655ZM84.315-14.19a6.375,6.375,0,0,1,3.894-1.21,6.423,6.423,0,0,1,3.9,1.21,4.779,4.779,0,0,1,1.342,1.5,4,4,0,0,1,.561,2.035H90.442q0-.308-.451-.649a2.931,2.931,0,0,0-1.782-.517,2.882,2.882,0,0,0-1.771.517.836.836,0,0,0-.451.649.836.836,0,0,0,.451.649,2.882,2.882,0,0,0,1.771.517,6.444,6.444,0,0,1,3.9,1.221,4.846,4.846,0,0,1,1.342,1.485,4.018,4.018,0,0,1,.561,2.046,4,4,0,0,1-.561,2.035,4.779,4.779,0,0,1-1.342,1.5A6.423,6.423,0,0,1,88.209,0a6.375,6.375,0,0,1-3.894-1.21,4.784,4.784,0,0,1-1.353-1.5,3.981,3.981,0,0,1-.55-2.035h3.575a.836.836,0,0,0,.451.649,2.882,2.882,0,0,0,1.771.517,2.931,2.931,0,0,0,1.782-.517q.451-.341.451-.649t-.451-.66a2.993,2.993,0,0,0-1.782-.517,6.375,6.375,0,0,1-3.894-1.21,5.018,5.018,0,0,1-1.353-1.485,4.079,4.079,0,0,1-.55-2.046,3.981,3.981,0,0,1,.55-2.035A4.784,4.784,0,0,1,84.315-14.19ZM112.959,0h-3.685l-.627-2.53h-4.818L103.2,0H99.517l3.85-15.4h5.742Zm-6.8-11.825-1.43,5.72h3.014l-1.419-5.72Zm26.114,0h-7.6v2.332h5.918v3.575h-5.918V0H121.1V-15.4h11.176Zm20.2,0h-7.6v2.332h5.918v3.575H144.87v2.343h7.6V0H141.295V-15.4h11.176Z" transform="translate(0 157.431)" fill="#fff"/>
  </g>
</svg>
