<svg width="151" height="152" viewBox="0 0 151 152" fill="none" xmlns="http://www.w3.org/2000/svg">
    <g clip-path="url(#clip0)">
        <path d="M7.26 142.682L12.06 151.482H7.99L4.928 145.882L3.575 147.742V151.482H0V136.082H3.575V141.659L7.634 136.082H12.056L7.26 142.682ZM31.369 139.657H23.769V141.989H29.687V145.564H23.768V147.907H31.368V151.482H20.193V136.082H31.369V139.657ZM52.004 139.657H44.4V141.989H50.318V145.564H44.4V147.907H52V151.482H40.828V136.082H52L52.004 139.657ZM61.463 136.082H67.263C68.0371 136.081 68.8037 136.235 69.518 136.533C70.2083 136.824 70.8358 137.247 71.366 137.776C71.8939 138.308 72.3157 138.935 72.609 139.624C72.9067 140.339 73.059 141.107 73.057 141.882C73.0576 142.656 72.9043 143.423 72.606 144.137C72.3142 144.826 71.8922 145.453 71.363 145.982C70.8328 146.511 70.2053 146.934 69.515 147.225C68.8007 147.523 68.0341 147.677 67.26 147.676H65.038V151.482H61.463V136.082ZM65.038 139.657V144.101H67.26C67.5526 144.106 67.8432 144.051 68.1137 143.939C68.3843 143.828 68.6291 143.662 68.833 143.452C69.0425 143.248 69.2082 143.004 69.3198 142.734C69.4314 142.464 69.4866 142.174 69.482 141.882C69.486 141.59 69.4305 141.301 69.3189 141.031C69.2073 140.762 69.042 140.518 68.833 140.314C68.6299 140.103 68.3854 139.935 68.1147 139.823C67.8441 139.71 67.5531 139.654 67.26 139.659L65.038 139.657ZM82.109 137.292C83.2387 136.474 84.6056 136.049 86 136.082C87.397 136.05 88.7662 136.475 89.9 137.292C90.4487 137.691 90.9062 138.202 91.242 138.792C91.6078 139.408 91.8016 140.111 91.803 140.827H88.236C88.236 140.622 88.0857 140.405 87.785 140.178C87.2627 139.817 86.6373 139.636 86.003 139.661C85.372 139.635 84.7497 139.816 84.232 140.178C84.1091 140.241 84.0037 140.333 83.925 140.446C83.8463 140.559 83.7968 140.69 83.781 140.827C83.7968 140.964 83.8463 141.095 83.925 141.208C84.0037 141.321 84.1091 141.413 84.232 141.476C84.7497 141.838 85.372 142.019 86.003 141.993C87.401 141.966 88.7699 142.395 89.903 143.214C90.4502 143.609 90.909 144.113 91.25 144.695C91.6169 145.314 91.8107 146.021 91.811 146.741C91.8096 147.457 91.6158 148.16 91.25 148.776C90.9142 149.366 90.4567 149.877 89.908 150.276C88.7715 151.093 87.3993 151.517 86 151.482C84.6045 151.516 83.2365 151.091 82.106 150.272C81.5534 149.874 81.0921 149.363 80.753 148.772C80.3901 148.155 80.2001 147.452 80.203 146.737H83.778C83.7938 146.874 83.8433 147.005 83.922 147.118C84.0007 147.231 84.1061 147.323 84.229 147.386C84.7467 147.748 85.369 147.929 86 147.903C86.6343 147.928 87.2597 147.747 87.782 147.386C88.0827 147.159 88.233 146.942 88.233 146.737C88.233 146.532 88.0827 146.312 87.782 146.077C87.2573 145.722 86.6333 145.542 86 145.564C84.6045 145.598 83.2365 145.173 82.106 144.354C81.5595 143.955 81.0993 143.45 80.753 142.869C80.3927 142.247 80.2029 141.542 80.203 140.823C80.2001 140.108 80.3901 139.405 80.753 138.788C81.0935 138.199 81.5557 137.689 82.109 137.292V137.292ZM110.753 151.482H107.068L106.441 148.952H101.623L101 151.482H97.311L101.161 136.082H106.9L110.753 151.482ZM103.953 139.657L102.523 145.377H105.537L104.118 139.657H103.953ZM130.064 139.657H122.464V141.989H128.382V145.564H122.464V151.482H118.89V136.082H130.066L130.064 139.657ZM150.258 139.657H142.658V141.989H148.576V145.564H142.66V147.907H150.26V151.482H139.085V136.082H150.261L150.258 139.657Z" fill="white" />
        <path d="M124.578 20.808C124.578 21.856 124.628 22.908 124.568 23.953C124.585 24.4388 124.502 24.923 124.325 25.3757C124.148 25.8284 123.88 26.2401 123.538 26.5856C123.196 26.931 122.787 27.2028 122.336 27.3843C121.885 27.5658 121.402 27.6531 120.916 27.641C119.065 27.733 117.206 27.634 115.353 27.695C112.223 27.795 110.792 29.214 110.671 32.323C110.609 33.934 110.684 35.549 110.64 37.161C110.555 40.261 109.24 41.577 106.211 41.628C104.518 41.657 102.823 41.665 101.13 41.628C98.34 41.561 96.982 40.235 96.899 37.477C96.846 35.704 96.9411 33.926 96.8651 32.155C96.7441 29.355 95.2921 27.862 92.4791 27.708C90.6291 27.608 88.7691 27.727 86.9161 27.662C84.2921 27.57 82.9741 26.209 82.9161 23.554C82.8731 21.619 82.8482 19.68 82.9342 17.748C82.917 17.2615 82.9994 16.7766 83.1766 16.3232C83.3539 15.8698 83.6221 15.4575 83.9647 15.1116C84.3073 14.7658 84.7169 14.4937 85.1686 14.3121C85.6203 14.1306 86.1045 14.0434 86.5912 14.056C88.2802 13.964 89.977 14.032 91.671 14.013C95.378 13.972 96.8291 12.555 96.8841 8.91302C96.9081 7.30102 96.849 5.686 96.91 4.075C97.005 1.594 98.3402 0.191032 100.81 0.066032C102.66 -0.027968 104.52 -1.54078e-05 106.373 0.0549846C109.173 0.137985 110.515 1.449 110.629 4.216C110.702 5.988 110.594 7.76702 110.678 9.53802C110.817 12.48 112.299 13.902 115.278 14.007C116.728 14.058 118.178 14.013 119.633 14.022C123.413 14.048 124.571 15.182 124.599 18.877C124.599 19.522 124.599 20.167 124.599 20.812L124.578 20.808Z" fill="white" />
        <path d="M41.8961 67.307C41.8961 70.645 41.952 73.984 41.88 77.32C41.813 80.41 40.333 81.835 37.273 81.898C35.4764 81.9346 33.6789 81.9346 31.8809 81.898C28.7699 81.831 27.3349 80.417 27.2669 77.346C27.2249 75.464 27.3139 73.578 27.2359 71.698C27.2691 71.0944 27.1762 70.4906 26.963 69.925C26.7497 69.3594 26.4208 68.8445 25.9974 68.4132C25.5739 67.9818 25.0653 67.6435 24.5037 67.4198C23.9422 67.1961 23.34 67.0919 22.7359 67.114C20.6879 67 18.627 67.132 16.576 67.05C16.0166 67.0871 15.4558 67.0039 14.9312 66.8061C14.4066 66.6082 13.9306 66.3003 13.535 65.903C13.1394 65.5057 12.8334 65.0283 12.6378 64.5029C12.4422 63.9775 12.3614 63.4162 12.4009 62.857C12.3269 60.806 12.318 58.746 12.409 56.696C12.3764 56.1353 12.4655 55.5741 12.6702 55.0511C12.875 54.5281 13.1907 54.0556 13.5953 53.6661C13.9999 53.2766 14.4841 52.9792 15.0145 52.7945C15.5449 52.6098 16.109 52.5421 16.668 52.596C23.6014 52.5413 30.5348 52.5383 37.4681 52.587C40.4191 52.606 41.796 53.998 41.868 57.04C41.949 60.462 41.887 63.887 41.887 67.31L41.8961 67.307Z" fill="white" />
        <path d="M125.635 45.478C122.405 45.478 119.173 45.4351 115.944 45.4921C113.235 45.5401 111.856 46.792 111.826 49.472C111.753 56.0127 111.758 62.5537 111.843 69.095C111.879 71.715 113.343 73.016 115.994 73.102C117.769 73.159 119.549 73.163 121.323 73.107C124.191 73.016 125.514 71.618 125.566 68.681C125.596 66.981 125.524 65.287 125.589 63.594C125.697 60.817 127.198 59.294 129.989 59.162C131.842 59.075 133.704 59.1801 135.56 59.1171C138.048 59.0331 139.45 57.676 139.55 55.212C139.629 53.277 139.63 51.3341 139.55 49.3981C139.584 48.8693 139.503 48.3395 139.313 47.8449C139.123 47.3503 138.828 46.9026 138.45 46.5323C138.071 46.162 137.616 45.8778 137.117 45.6993C136.618 45.5208 136.087 45.4522 135.559 45.498C132.258 45.425 128.946 45.478 125.635 45.478Z" fill="white" />
        <path d="M70.496 41.635C67.266 41.635 64.0341 41.678 60.8051 41.621C58.0961 41.573 56.7171 40.321 56.6871 37.641C56.6138 31.1003 56.619 24.5593 56.703 18.018C56.739 15.398 58.2031 14.097 60.8551 14.011C62.6298 13.9537 64.4063 13.952 66.1849 14.006C69.0519 14.097 70.3761 15.495 70.4281 18.432C70.4581 20.132 70.3851 21.826 70.4511 23.519C70.5591 26.295 72.06 27.819 74.851 27.951C76.705 28.038 78.567 27.933 80.423 27.996C82.911 28.08 84.313 29.4369 84.413 31.9009C84.492 33.8359 84.493 35.779 84.413 37.715C84.4466 38.2437 84.3659 38.7735 84.1759 39.2681C83.986 39.7627 83.6913 40.2105 83.3124 40.5808C82.9335 40.9511 82.4792 41.2352 81.9804 41.4136C81.4815 41.5921 80.9498 41.6608 80.422 41.615C77.119 41.692 73.807 41.635 70.496 41.635Z" fill="white" />
        <path d="M97.3781 83.256C97.3781 80.107 97.3381 76.956 97.3891 73.809C97.4331 71.063 98.6119 69.736 101.28 69.566C103.295 69.4379 105.316 69.4419 107.33 69.578C109.784 69.744 111.06 71.006 111.09 73.446C111.169 80.066 111.139 86.687 111.111 93.308C111.15 93.7976 111.088 94.29 110.928 94.7543C110.768 95.2187 110.514 95.645 110.181 96.0064C109.849 96.3677 109.445 96.6564 108.995 96.8543C108.546 97.0521 108.06 97.1548 107.569 97.156C105.397 97.3415 103.213 97.3495 101.039 97.18C98.639 96.998 97.4392 95.617 97.3952 93.186C97.3292 89.878 97.3791 86.567 97.3781 83.256Z" fill="white" />
        <path d="M54.9299 97.2431C54.9299 94.0941 54.8901 90.943 54.9411 87.796C54.9861 85.05 56.165 83.7231 58.832 83.5531C60.8471 83.4248 62.8684 83.4288 64.883 83.565C67.336 83.731 68.613 84.9931 68.642 87.4331C68.721 94.0531 68.691 100.674 68.663 107.295C68.7023 107.785 68.64 108.277 68.4799 108.741C68.3199 109.206 68.0655 109.632 67.7329 109.993C67.4003 110.354 66.9965 110.643 66.5471 110.841C66.0976 111.039 65.6121 111.142 65.121 111.143C62.9486 111.329 60.7647 111.337 58.591 111.167C56.191 110.985 54.991 109.604 54.947 107.174C54.884 103.865 54.9309 100.554 54.9299 97.2431Z" fill="white" />
        <path d="M138.594 34.863C138.594 35.748 138.627 36.635 138.587 37.519C138.472 40.086 137.063 41.531 134.506 41.619C132.657 41.684 130.806 41.67 128.953 41.619C126.374 41.554 124.864 40.199 124.702 37.659C124.586 35.7301 124.586 33.7959 124.702 31.867C124.843 29.39 126.157 28.085 128.686 27.886C130.286 27.76 131.904 27.812 133.513 27.838C137.336 27.899 138.575 29.154 138.595 32.926C138.597 33.575 138.594 34.219 138.594 34.863Z" fill="white" />
        <path d="M75.6528 124.995C74.7668 124.995 73.8788 125.029 72.9958 124.986C72.4696 125.013 71.9434 124.932 71.4495 124.748C70.9555 124.565 70.5041 124.283 70.1228 123.919C69.7415 123.556 69.4383 123.118 69.2317 122.633C69.025 122.149 68.9193 121.627 68.9209 121.1C68.8009 119.09 68.8036 117.074 68.929 115.064C68.9126 114.575 68.9949 114.088 69.1709 113.631C69.3469 113.175 69.6131 112.758 69.9536 112.407C70.2941 112.056 70.7016 111.776 71.1523 111.586C71.6031 111.396 72.0876 111.298 72.5769 111.299C74.7446 111.153 76.9195 111.148 79.0879 111.284C81.4189 111.448 82.6789 112.862 82.8169 115.242C82.9099 116.847 82.863 118.463 82.845 120.073C82.805 123.621 81.4159 124.973 77.8279 124.996C77.1029 125.001 76.3778 124.998 75.6528 124.995Z" fill="white" />
        <path d="M54.8371 7.17097C54.8371 8.05597 54.8671 8.94202 54.8271 9.82502C54.7201 12.217 53.551 13.625 51.183 13.813C49.0177 13.9875 46.8415 13.9824 44.6769 13.798C44.1882 13.7974 43.7048 13.6966 43.2565 13.5017C42.8083 13.3069 42.4048 13.0222 42.071 12.6652C41.7371 12.3082 41.48 11.8865 41.3156 11.4262C41.1512 10.9659 41.0828 10.4767 41.1149 9.98902C41.0779 7.97902 41.0331 5.96499 41.1271 3.95899C41.2431 1.49899 42.627 0.169967 45.112 0.0589665C46.717 -0.0150335 48.3289 0.0299895 49.9379 0.0449895C53.5959 0.0779895 54.8001 1.301 54.8381 5.003C54.8471 5.723 54.8401 6.44697 54.8371 7.17097Z" fill="white" />
        <path d="M89.711 97.394C96.311 97.373 96.7909 97.856 96.7799 104.534C96.8187 105.657 96.762 106.782 96.61 107.896C96.5356 108.753 96.1381 109.551 95.4981 110.126C94.8582 110.702 94.0235 111.013 93.1629 110.996C90.9129 111.068 88.6538 111.087 86.4058 110.987C85.9578 110.996 85.5123 110.916 85.0955 110.752C84.6787 110.587 84.299 110.341 83.9784 110.028C83.6577 109.715 83.4026 109.341 83.2279 108.928C83.0532 108.516 82.9625 108.072 82.961 107.624C82.7959 105.376 82.7941 103.118 82.9559 100.87C82.9579 100.403 83.0541 99.9406 83.2386 99.5113C83.4232 99.082 83.6924 98.6943 84.0301 98.3713C84.3678 98.0483 84.7669 97.7966 85.2039 97.6312C85.641 97.4659 86.1069 97.3903 86.5738 97.409C87.6158 97.342 88.665 97.394 89.711 97.394Z" fill="white" />
        <path d="M45.981 97.152C39.659 97.152 39.0808 96.578 39.0808 90.303C39.0808 89.418 39.045 88.53 39.103 87.648C39.288 84.848 40.592 83.561 43.356 83.499C45.286 83.455 47.2209 83.434 49.1489 83.512C49.6546 83.4877 50.1598 83.5697 50.6318 83.7526C51.1039 83.9356 51.5322 84.2154 51.8894 84.5741C52.2466 84.9328 52.5246 85.3624 52.7056 85.8352C52.8865 86.308 52.9664 86.8135 52.9399 87.319C53.0109 89.006 52.968 90.698 52.959 92.388C52.939 95.893 51.7079 97.11 48.1499 97.152C47.4299 97.161 46.706 97.153 45.981 97.152Z" fill="white" />
        <path d="M27.1451 20.799C27.1451 19.834 27.1069 18.8681 27.1529 17.9051C27.2649 15.5201 28.545 14.1451 30.876 14.0511C32.962 13.9661 35.0561 13.989 37.1451 14.044C37.6314 14.0103 38.1194 14.0796 38.5772 14.2471C39.035 14.4146 39.4525 14.6768 39.8023 15.0164C40.152 15.3561 40.4261 15.7656 40.607 16.2183C40.7879 16.6711 40.8715 17.1569 40.8521 17.6441C40.9748 19.7308 40.98 21.8227 40.868 23.9101C40.738 26.3371 39.4519 27.553 37.0459 27.653C35.2799 27.726 33.5089 27.697 31.7459 27.674C28.3829 27.632 27.176 26.3851 27.146 22.9651C27.139 22.2421 27.146 21.5181 27.146 20.7951L27.1451 20.799Z" fill="white" />
        <path d="M24.9831 33.085C28.1321 33.085 31.2831 33.045 34.4301 33.096C37.1761 33.14 38.503 34.3191 38.673 36.9871C38.8013 39.0018 38.7974 41.0228 38.6611 43.037C38.4951 45.49 37.2329 46.767 34.7929 46.796C28.1739 46.875 21.5521 46.845 14.9311 46.817C14.4415 46.8563 13.9491 46.794 13.4848 46.6339C13.0205 46.4739 12.5944 46.2196 12.2331 45.887C11.8717 45.5544 11.5831 45.1506 11.3852 44.7012C11.1873 44.2517 11.0843 43.7661 11.0829 43.275C10.8972 41.1026 10.8893 38.9187 11.059 36.7451C11.241 34.3451 12.6219 33.145 15.0529 33.101C18.3609 33.038 21.6731 33.086 24.9831 33.085Z" fill="white" />
        <path d="M38.027 33.085C41.176 33.085 44.327 33.045 47.474 33.096C50.22 33.14 51.547 34.3191 51.717 36.9871C51.8453 39.0018 51.8413 41.0228 51.705 43.037C51.539 45.49 50.2768 46.767 47.8368 46.796C41.2168 46.875 34.596 46.845 27.975 46.817C27.4855 46.8563 26.993 46.794 26.5287 46.6339C26.0644 46.4739 25.6381 46.2196 25.2768 45.887C24.9154 45.5544 24.6268 45.1506 24.4289 44.7012C24.231 44.2517 24.1282 43.7661 24.1269 43.275C23.9413 41.1026 23.9333 38.9187 24.1029 36.7451C24.2849 34.3451 25.6659 33.145 28.0959 33.101C31.4059 33.038 34.717 33.086 38.027 33.085Z" fill="white" />
        <path d="M89.6711 82.96C89.2435 82.9552 88.8289 82.8128 88.4885 82.554C88.1481 82.2952 87.8999 81.9337 87.781 81.523L78.9931 52.587L74.143 66.263C74.0103 66.6523 73.7601 66.9908 73.4267 67.2317C73.0934 67.4726 72.6932 67.6041 72.2819 67.608H48.0132C47.4781 67.5988 46.9685 67.3774 46.5966 66.9926C46.2248 66.6078 46.0209 66.091 46.03 65.556C46.0209 65.0209 46.2248 64.5042 46.5966 64.1194C46.9685 63.7346 47.4781 63.5132 48.0132 63.504H70.8982L77.278 45.515C77.4131 45.118 77.6706 44.7741 78.0134 44.5326C78.3562 44.2911 78.7667 44.1645 79.186 44.171C79.6054 44.1858 80.0094 44.3325 80.3405 44.5903C80.6717 44.8482 80.913 45.204 81.03 45.607L89.063 72.057L90.1779 65.005C90.2448 64.5318 90.4791 64.0981 90.8381 63.7826C91.1971 63.4671 91.6571 63.2906 92.135 63.285L102.79 63.299C103.325 63.309 103.834 63.531 104.205 63.9161C104.577 64.3013 104.78 64.8181 104.77 65.353C104.778 65.8873 104.574 66.4032 104.203 66.7874C103.831 67.1715 103.322 67.3925 102.788 67.402V67.402L93.8191 67.39L91.6291 81.238C91.5643 81.6868 91.3494 82.1005 91.0197 82.4118C90.6901 82.7232 90.2647 82.9139 89.813 82.953C89.765 82.958 89.7181 82.96 89.6711 82.96Z" fill="white" />
    </g>
    <defs>
        <clipPath id="clip0">
            <rect width="150.261" height="151.481" fill="white" />
        </clipPath>
    </defs>
</svg>
