<svg xmlns="http://www.w3.org/2000/svg" width="23.527" height="23.528" viewBox="0 0 23.527 23.528"><defs><style>.a{fill:#fff;}</style></defs><g transform="translate(-1.937 -1.937)"><path class="a" d="M71.965,74.784H66.818A2.822,2.822,0,0,1,64,71.965V66.818A2.822,2.822,0,0,1,66.818,64h5.147a2.822,2.822,0,0,1,2.818,2.818v5.147A2.822,2.822,0,0,1,71.965,74.784Zm-5.147-8.823a.859.859,0,0,0-.858.858v5.147a.859.859,0,0,0,.858.858h5.147a.859.859,0,0,0,.858-.858V66.818a.859.859,0,0,0-.858-.858Z" transform="translate(-62.063 -62.063)"/><path class="a" d="M71.965,282.784H66.818A2.822,2.822,0,0,1,64,279.965v-5.147A2.822,2.822,0,0,1,66.818,272h5.147a2.822,2.822,0,0,1,2.818,2.818v5.147A2.822,2.822,0,0,1,71.965,282.784Zm-5.147-8.823a.859.859,0,0,0-.858.858v5.147a.859.859,0,0,0,.858.858h5.147a.859.859,0,0,0,.858-.858v-5.147a.859.859,0,0,0-.858-.858Z" transform="translate(-62.063 -257.319)"/><path class="a" d="M279.965,74.784h-5.147A2.822,2.822,0,0,1,272,71.965V66.818A2.822,2.822,0,0,1,274.818,64h5.147a2.822,2.822,0,0,1,2.818,2.818v5.147A2.822,2.822,0,0,1,279.965,74.784Zm-5.147-8.823a.859.859,0,0,0-.858.858v5.147a.859.859,0,0,0,.858.858h5.147a.859.859,0,0,0,.858-.858V66.818a.859.859,0,0,0-.858-.858Z" transform="translate(-257.319 -62.063)"/><path class="a" d="M281.19,276.9h-2.328v-3.309A1.6,1.6,0,0,0,277.269,272h-3.676A1.6,1.6,0,0,0,272,273.593v3.676a1.6,1.6,0,0,0,1.593,1.593H276.9v2.328a1.6,1.6,0,0,0,1.593,1.593h2.7a1.6,1.6,0,0,0,1.593-1.593v-2.7A1.6,1.6,0,0,0,281.19,276.9Zm-7.23-2.941H276.9V276.9h-2.941Zm6.862,6.862h-1.961v-1.961h1.961Z" transform="translate(-257.319 -257.319)"/><path class="a" d="M129.961,130.941h-.98a.98.98,0,0,1-.98-.98v-.98a.98.98,0,0,1,.98-.98h.98a.98.98,0,0,1,.98.98v.98A.98.98,0,0,1,129.961,130.941Z" transform="translate(-122.142 -122.142)"/><path class="a" d="M337.961,130.941h-.98a.98.98,0,0,1-.98-.98v-.98a.98.98,0,0,1,.98-.98h.98a.98.98,0,0,1,.98.98v.98A.98.98,0,0,1,337.961,130.941Z" transform="translate(-317.398 -122.142)"/><path class="a" d="M129.961,338.941h-.98a.98.98,0,0,1-.98-.98v-.98a.98.98,0,0,1,.98-.98h.98a.98.98,0,0,1,.98.98v.98A.98.98,0,0,1,129.961,338.941Z" transform="translate(-122.142 -317.398)"/></g></svg>