<svg xmlns="http://www.w3.org/2000/svg" width="25" height="25" viewBox="0 0 25 25"><defs><style>.a{fill:#702d41;}.b{fill:#d290a4;}</style></defs><g transform="translate(-3329 -1352)"><circle class="a" cx="12.5" cy="12.5" r="12.5" transform="translate(3329 1352)"/><path class="b" d="M7.682-12.687a3.209,3.209,0,0,1,1.639.44,3.251,3.251,0,0,1,1.2,1.2,3.209,3.209,0,0,1,.44,1.639v.636a1.133,1.133,0,0,1-.343.832,1.133,1.133,0,0,1-.832.343H1.174a1.133,1.133,0,0,1-.832-.343A1.133,1.133,0,0,1,0-8.773v-.636a3.209,3.209,0,0,1,.44-1.639,3.251,3.251,0,0,1,1.2-1.2,3.209,3.209,0,0,1,1.639-.44,2.778,2.778,0,0,1,.832.171q.343.1.563.147a4.124,4.124,0,0,0,.807.073,4.124,4.124,0,0,0,.807-.073q.22-.049.563-.147A2.778,2.778,0,0,1,7.682-12.687Zm2.1,3.915v-.636a2.022,2.022,0,0,0-.624-1.48,2.022,2.022,0,0,0-1.48-.624,2.073,2.073,0,0,0-.489.1,5.367,5.367,0,0,1-1.7.294,5.591,5.591,0,0,1-1.725-.294,2.427,2.427,0,0,0-.489-.1,2.022,2.022,0,0,0-1.48.624,2.022,2.022,0,0,0-.624,1.48v.636ZM5.48-13.079a3.4,3.4,0,0,1-1.762-.477A3.59,3.59,0,0,1,2.434-14.84,3.4,3.4,0,0,1,1.957-16.6a3.4,3.4,0,0,1,.477-1.762,3.59,3.59,0,0,1,1.284-1.284,3.4,3.4,0,0,1,1.762-.477,3.4,3.4,0,0,1,1.762.477,3.59,3.59,0,0,1,1.284,1.284A3.4,3.4,0,0,1,9-16.6a3.4,3.4,0,0,1-.477,1.762,3.59,3.59,0,0,1-1.284,1.284A3.4,3.4,0,0,1,5.48-13.079Zm0-5.872a2.265,2.265,0,0,0-1.664.685A2.265,2.265,0,0,0,3.132-16.6a2.265,2.265,0,0,0,.685,1.664,2.265,2.265,0,0,0,1.664.685,2.265,2.265,0,0,0,1.664-.685A2.265,2.265,0,0,0,7.829-16.6a2.265,2.265,0,0,0-.685-1.664A2.265,2.265,0,0,0,5.48-18.951Z" transform="translate(3336 1378)"/></g></svg>