<svg xmlns="http://www.w3.org/2000/svg" width="21.197" height="21.199" viewBox="0 0 21.197 21.199">
  <g id="QRCodeIcon" transform="translate(-2.525 -2.525)">
    <path id="Path_31" data-name="Path 31" d="M71.176,73.716H66.539A2.542,2.542,0,0,1,64,71.176V66.539A2.542,2.542,0,0,1,66.539,64h4.637a2.542,2.542,0,0,1,2.539,2.539v4.637A2.542,2.542,0,0,1,71.176,73.716Zm-4.637-7.949a.774.774,0,0,0-.773.773v4.637a.774.774,0,0,0,.773.773h4.637a.774.774,0,0,0,.773-.773V66.539a.774.774,0,0,0-.773-.773Z" transform="translate(-61.475 -61.475)"/>
    <path id="Path_32" data-name="Path 32" d="M71.176,281.716H66.539A2.542,2.542,0,0,1,64,279.177V274.54A2.542,2.542,0,0,1,66.539,272h4.637a2.542,2.542,0,0,1,2.539,2.539v4.637A2.542,2.542,0,0,1,71.176,281.716Zm-4.637-7.949a.774.774,0,0,0-.773.773v4.637a.774.774,0,0,0,.773.773h4.637a.774.774,0,0,0,.773-.773V274.54a.774.774,0,0,0-.773-.773Z" transform="translate(-61.475 -257.993)"/>
    <path id="Path_33" data-name="Path 33" d="M279.177,73.716H274.54a2.542,2.542,0,0,1-2.54-2.54V66.539A2.542,2.542,0,0,1,274.539,64h4.637a2.542,2.542,0,0,1,2.539,2.539v4.637a2.542,2.542,0,0,1-2.538,2.54Zm-4.637-7.949a.774.774,0,0,0-.773.773v4.637a.774.774,0,0,0,.773.773h4.637a.774.774,0,0,0,.773-.773V66.539a.774.774,0,0,0-.773-.773Z" transform="translate(-257.993 -61.475)"/>
    <path id="Path_34" data-name="Path 34" d="M280.281,276.416h-2.1v-2.981A1.437,1.437,0,0,0,276.748,272h-3.312A1.437,1.437,0,0,0,272,273.435v3.312a1.437,1.437,0,0,0,1.435,1.435h2.981v2.1a1.437,1.437,0,0,0,1.435,1.435h2.429a1.437,1.437,0,0,0,1.435-1.435v-2.429a1.437,1.437,0,0,0-1.434-1.437Zm-6.514-2.65h2.65v2.65h-2.65Zm6.183,6.183h-1.767v-1.767h1.767Z" transform="translate(-257.993 -257.993)"/>
    <path id="Path_35" data-name="Path 35" d="M129.767,130.65h-.883a.883.883,0,0,1-.883-.883v-.883a.883.883,0,0,1,.883-.883h.883a.883.883,0,0,1,.883.883v.883A.883.883,0,0,1,129.767,130.65Z" transform="translate(-121.942 -121.942)"/>
    <path id="Path_36" data-name="Path 36" d="M337.766,130.65h-.883a.883.883,0,0,1-.883-.883v-.883a.883.883,0,0,1,.883-.883h.883a.883.883,0,0,1,.883.883v.883A.883.883,0,0,1,337.766,130.65Z" transform="translate(-318.46 -121.942)"/>
    <path id="Path_37" data-name="Path 37" d="M129.767,338.65h-.883a.883.883,0,0,1-.883-.883v-.883a.883.883,0,0,1,.883-.883h.883a.883.883,0,0,1,.883.883v.883A.883.883,0,0,1,129.767,338.65Z" transform="translate(-121.942 -318.46)"/>
  </g>
</svg>
