<svg xmlns="http://www.w3.org/2000/svg" width="159" height="161" viewBox="0 0 159 161">
  <line id="Line_1" data-name="Line 1" x2="152.682" transform="translate(3.951 79.315)" fill="none" stroke="#de3344" stroke-width="5"/>
  <path id="Path_89" data-name="Path 89" d="M3.793,21H0V0H22V3.75H3.793Z" transform="translate(159.468 159.467) rotate(180)" fill="none"/>
  <path id="Path_90" data-name="Path 90" d="M3.793,21H0V0H22V3.75H3.793V21Z" transform="translate(159.468 159.467) rotate(180)" fill="#de3344"/>
  <path id="Path_87" data-name="Path 87" d="M3.793,0H0V21H22V17.25H3.793Z" transform="translate(159.468 20.467) rotate(180)" fill="none"/>
  <path id="Path_88" data-name="Path 88" d="M0,0H3.793V17.25H22V21H0Z" transform="translate(159.468 20.467) rotate(180)" fill="#de3344"/>
  <path id="Path_85" data-name="Path 85" d="M3.793,0H0V21H22V17.25H3.793Z" transform="translate(0.468 139.467)" fill="none"/>
  <path id="Path_86" data-name="Path 86" d="M0,0H3.793V17.25H22V21H0Z" transform="translate(0.468 139.467)" fill="#de3344"/>
  <path id="Path_83" data-name="Path 83" d="M3.793,21H0V0H22V3.75H3.793Z" transform="translate(0.468 0.467)" fill="none"/>
  <path id="Path_84" data-name="Path 84" d="M3.793,21H0V0H22V3.75H3.793V21Z" transform="translate(0.468 0.467)" fill="#de3344"/>
</svg>
