<svg xmlns="http://www.w3.org/2000/svg" width="25" height="25" viewBox="0 0 25 25"><defs><style>.a{fill:#702d41;}.b{fill:#d290a4;}</style></defs><g transform="translate(-3226.521 -1351.521)"><circle class="a" cx="12.5" cy="12.5" r="12.5" transform="translate(3226.521 1351.521)"/><g transform="translate(3232.432 1357.432)"><path class="b" d="M.778.778h1.4V0H0V2.174H.778Z" transform="translate(0 0)"/><path class="b" d="M428.143,0V.778h1.4v1.4h.778V0Z" transform="translate(-417.041 0)"/><path class="b" d="M.778,428.143H0v2.174H2.174v-.778H.778Z" transform="translate(0 -417.041)"/><path class="b" d="M429.539,429.539h-1.4v.778h2.174v-2.174h-.778Z" transform="translate(-417.041 -417.041)"/><path class="b" d="M68.857,73.206h4.349V68.857H68.857Zm.778-3.571h2.793v2.793H69.635Z" transform="translate(-67.072 -67.072)"/><path class="b" d="M279.778,275.429h-4.349v4.349h4.349Zm-3.571.778H279v1.008h-1.785V279h-1.008v-2.793ZM277.992,279v-1.007H279V279Z" transform="translate(-268.287 -268.287)"/><path class="b" d="M72.428,277.214H71.42v-1.785H68.857v4.349h4.349v-3.96h-.778Zm0,1.785H69.635v-2.793h1.008v1.785h1.785Z" transform="translate(-67.072 -268.287)"/><path class="b" d="M137.714,137.714h.778v.778h-.778Z" transform="translate(-134.143 -134.143)"/><path class="b" d="M276.207,69.635h1.008V71.42H279v1.008h-3.571v.778h4.349V68.857h-4.349v2.558h.778Zm1.785,0H279v1.008h-1.008Z" transform="translate(-268.287 -67.072)"/></g></g></svg>