<svg xmlns="http://www.w3.org/2000/svg" width="159" height="161" viewBox="0 0 159 161"><defs><style>.a,.b{fill:none;}.b{stroke:#de3344;stroke-width:5px;}.c,.d{stroke:none;}.d{fill:#de3344;}</style></defs><g transform="translate(-0.468 0.533)"><g transform="translate(0 0)"><g class="a" transform="translate(0.468 0.467)"><path class="c" d="M3.793,21H0V0H22V3.75H3.793V21Z"/><path class="d" d="M 3.792990922927856 21 L 3.792191028594971 21 L 9.5367431640625e-07 21 L 9.5367431640625e-07 0 L 22 0 L 22 3.750119924545288 L 3.792990922927856 3.750119924545288 L 3.792990922927856 20.99925994873047 L 3.792990922927856 21 Z"/></g><g class="a" transform="translate(0.468 139.467)"><path class="c" d="M3.793,0H0V21H22V17.25H3.793V0Z"/><path class="d" d="M 1.9073486328125e-06 0 L 3.792360305786133 0 L 3.793100357055664 0 L 3.793100357055664 0.0007305145263671875 L 3.793100357055664 17.2498893737793 L 22 17.2498893737793 L 22 21 L 1.9073486328125e-06 21 L 1.9073486328125e-06 0 Z"/></g><g class="a" transform="translate(159.468 20.467) rotate(180)"><path class="c" d="M3.793,0H0V21H22V17.25H3.793V0Z"/><path class="d" d="M 1.9073486328125e-06 0 L 3.792360305786133 0 L 3.793100357055664 0 L 3.793100357055664 0.0007305145263671875 L 3.793100357055664 17.2498893737793 L 22 17.2498893737793 L 22 21 L 1.9073486328125e-06 21 L 1.9073486328125e-06 0 Z"/></g><g class="a" transform="translate(159.468 159.467) rotate(180)"><path class="c" d="M3.793,21H0V0H22V3.75H3.793V21Z"/><path class="d" d="M 3.793101072311401 21 L 3.79236102104187 21 L 9.5367431640625e-07 21 L 9.5367431640625e-07 0 L 22 0 L 22 3.750099897384644 L 3.793101072311401 3.750099897384644 L 3.793101072311401 20.99926948547363 L 3.793101072311401 21 Z"/></g></g><line class="b" x2="152.682" transform="translate(3.951 79.315)"/></g></svg>